# xmcd
#
# Track frame offsets:
#	150
#	12319
#	21616
#	33240
#	43520
#	60207
#	76735
#	88242
#	99810
#	113778
#
# Disc length: 1683 seconds
#
# Revision: 5
# Processed by: cddbd v1.5.1PL2 Copyright (c) Steve Scherf et al.
# Submitted via: EasyCDDAExtractor 9.0.0.1
#
DISCID=6b06910a
DTITLE=Elvis Presley - The Original Elvis Presley Collection 44 - Raised On Ro
DTITLE=ck
DYEAR=1973
DGENRE=
TTITLE0=Raised On Rock
TTITLE1=Are You Sincere
TTITLE2=Find Out What's Happening
TTITLE3=I Miss You
TTITLE4=Girl Of Mine
TTITLE5=For Ol' Times Sake
TTITLE6=If You Don't Come Back
TTITLE7=Just A Little Bit
TTITLE8=Sweet Angeline
TTITLE9=Three Corn Patches
EXTD=Raised On Rock\n
EXTT0=
EXTT1=
EXTT2=
EXTT3=
EXTT4=
EXTT5=
EXTT6=
EXTT7=
EXTT8=
EXTT9=
PLAYORDER=
